/* XPM */
static char *c71ffbeb4abe4a548f5fb01926d11bc7uOPdLlnbUP5a3a47[] = {
/* columns rows colors chars-per-pixel */
"50 50 238 2 ",
"   c None",
".  c #EB7600",
"X  c #E67C00",
"o  c #ED7C01",
"O  c #E77700",
"+  c #F57500",
"@  c #F47D00",
"#  c #FA7B00",
"$  c #D98700",
"%  c #EC8300",
"&  c #ED8B01",
"*  c #E98507",
"=  c #F48301",
"-  c #FA8400",
";  c #F48C00",
":  c #FB8C00",
">  c #FF8C0B",
",  c #E79300",
"<  c #EE9300",
"1  c #EC9B00",
"2  c #E79A05",
"3  c #F49300",
"4  c #FC9302",
"5  c #F49C00",
"6  c #FD9C02",
"7  c #FE9309",
"8  c #FF9C0C",
"9  c #F88A17",
"0  c #ED9A1A",
"q  c #FD9412",
"w  c #F29A14",
"e  c #FF9D13",
"r  c #FA961E",
"t  c #EA8C12",
"y  c #D6B615",
"u  c #ECA301",
"i  c #EAAD00",
"p  c #E4A605",
"a  c #F4A400",
"s  c #FDA402",
"d  c #F5AB00",
"f  c #FDAC02",
"g  c #FEA40B",
"h  c #FFAB0C",
"j  c #F4A70C",
"k  c #EDB300",
"l  c #ECBC00",
"z  c #E6BD0C",
"x  c #F4B300",
"c  c #FDB302",
"v  c #F4BB00",
"b  c #FCBC02",
"n  c #FFB30B",
"m  c #FFBC0B",
"M  c #F3B90E",
"N  c #F1A410",
"B  c #FFA513",
"V  c #FFAC12",
"C  c #FAA91A",
"Z  c #EBB915",
"A  c #FFB614",
"S  c #FFBB12",
"D  c #FFBD1A",
"F  c #F5B51A",
"G  c #EAA919",
"H  c #DE9D25",
"J  c #DD9C31",
"K  c #EB9A26",
"L  c #F19729",
"P  c #ED9C31",
"I  c #F79C31",
"U  c #DBB724",
"Y  c #DCA63F",
"T  c #E8A52C",
"R  c #F3A826",
"E  c #EDBB2A",
"W  c #F5BA25",
"Q  c #E7A636",
"!  c #E6B938",
"~  c #F3BD36",
"^  c #EDC200",
"/  c #EFCB00",
"(  c #F4C300",
")  c #FDC402",
"_  c #F4CB00",
"`  c #FECC02",
"'  c #FFC40B",
"]  c #FFCC0B",
"[  c #F4CA0E",
"{  c #EFD100",
"}  c #F4D301",
"|  c #FED303",
" . c #F4DA02",
".. c #FEDC02",
"X. c #F4D40B",
"o. c #FFD40B",
"O. c #FFDB0B",
"+. c #F5DC0E",
"@. c #EEC717",
"#. c #FCC514",
"$. c #FFCC14",
"%. c #FECF1B",
"&. c #F7C41A",
"*. c #EDD615",
"=. c #FDD514",
"-. c #FEDC13",
";. c #FBD31A",
":. c #F2DE1D",
">. c #FFDE1B",
",. c #FEE302",
"<. c #FEEB02",
"1. c #FFE30B",
"2. c #FFEC0B",
"3. c #FFF101",
"4. c #FFF30C",
"5. c #FEE412",
"6. c #FEEC13",
"7. c #FEE51B",
"8. c #FFED1B",
"9. c #F3E112",
"0. c #FEF312",
"q. c #FEF31D",
"w. c #D7C22B",
"e. c #DAC436",
"r. c #EDC52B",
"t. c #FECD24",
"y. c #FECC2A",
"u. c #F8C326",
"i. c #EBD826",
"p. c #FDD223",
"a. c #F9DD26",
"s. c #FCD32B",
"d. c #F4D829",
"f. c #EBCA37",
"g. c #FCCC33",
"h. c #F8C838",
"j. c #FED335",
"k. c #FEDA33",
"l. c #FCD238",
"z. c #FCDC3D",
"x. c #F5DB3A",
"c. c #E2D93C",
"v. c #EDE229",
"b. c #FEE223",
"n. c #FDEB24",
"m. c #FEEC2B",
"M. c #F5E32A",
"N. c #FEF32B",
"B. c #FFF025",
"V. c #E9E638",
"C. c #FFEA34",
"Z. c #FEEC3D",
"A. c #FBE536",
"S. c #FDF136",
"D. c #FEF23B",
"F. c #B99946",
"G. c #BAA25C",
"H. c #B7B55F",
"J. c #B8A767",
"K. c #B5B36A",
"L. c #A0A177",
"P. c #ADBD7F",
"I. c #B0B973",
"U. c #DAA442",
"Y. c #D3A448",
"T. c #C9B747",
"R. c #DABA48",
"E. c #C6A956",
"W. c #CBBA5C",
"Q. c #D1AC4F",
"!. c #E6B441",
"~. c #F2AB43",
"^. c #C1AB64",
"/. c #C2B769",
"(. c #D1B668",
"). c #9DCD7A",
"_. c #B7CC73",
"`. c #BCDB72",
"'. c #B5DE78",
"]. c #ADCF72",
"[. c #BBE27D",
"{. c #DBCA43",
"}. c #DBDB4E",
"|. c #D5C85A",
" X c #C7D95B",
".X c #D3D25B",
"XX c #CDDC4D",
"oX c #E4CC43",
"OX c #E7CA47",
"+X c #FBCD47",
"@X c #EBD845",
"#X c #FDDC44",
"$X c #FED44B",
"%X c #FEDA4C",
"&X c #FBD748",
"*X c #EADD52",
"=X c #F2D252",
"-X c #FCD454",
";X c #FFDC53",
":X c #FDDB5B",
">X c #FCD55D",
",X c #F6CD51",
"<X c #CEE154",
"1X c #D2E05B",
"2X c #D7E454",
"3X c #E6E64B",
"4X c #E6E749",
"5X c #FFE445",
"6X c #FFEC45",
"7X c #FEE14B",
"8X c #FFEA49",
"9X c #FEF149",
"0X c #FCF345",
"qX c #FEE253",
"wX c #FEE35C",
"eX c #FFEE5C",
"rX c #FFF159",
"tX c #D2D26E",
"yX c #C9CF71",
"uX c #C7CC7C",
"iX c #CBDD6D",
"pX c #FCDC64",
"aX c #FFDB65",
"sX c #C7E076",
"dX c #FEE465",
"fX c #FFE864",
"gX c #FFE36C",
"hX c #FFEB6B",
"jX c #FFF365",
"kX c #FFE571",
"lX c #FFEC73",
"zX c #8EB78C",
"xX c #B0BF80",
"cX c #9DD489",
"vX c #A6C388",
"bX c #A8D886",
"nX c #BAD183",
"mX c #C4E481",
/* pixels */
"                                                                                                    ",
"                                        cXbX[.`.sXmX[.[.bXbX                                        ",
"                                   X2X4XV.V.A.M.a.M.M.v.V.V.4X2X X                                  ",
"                              sX4XM.9. .} } _ _ ` ` ` _ {  . .+.M.4XiXbX                            ",
"                          1XV.v.*.X./ } ....1.1.| | ........| _ } *.d.3X1X].                        ",
"                      '.4X:.} } { X._ o.7.5.9.7.X.X.5.2.,.,.| ` | } _ X.a.3X`.                      ",
"                    <XV.=._ _ O.5.5.[ p.C.S.S.Z.z.d.m.6.<.<.o.` ..,.../ ( ;.M.2X).                  ",
"                  <XM._ ( o.>.>.b.C.k.z.6X0X0X9X7Xl.C.n.2.2.o.` ,.,.,.,.| ) _ :.2X].                ",
"              bX}.a.` v ) =.a.A.rXrXqX7X8X9X9X8X#Xj.A.b.8.6._ o.1.,...,...) ) ^ ;.@X_.              ",
"              1Xa.l ` -.[ @.8XjXjXhXwX%X7X8X8X8Xg.y.k.b.7.5._ O.O...,..._ _ o.] ) %.*X_.            ",
"            XX:.^ ` O.7.k.%XhXhXlXhXdX;X%X%X#Xz.l.y.p.=.o._ ( o.1.O.O.) ( ..1.O.] b @.*XcX          ",
"          `.i._ ` O.>.A.eXhXpXgXgXdX:X%X#Xz.x.d.p.%.] | } _ ` o.O.O.` v ` 1. .+.=.] ) i. X          ",
"        `.c.[ x o.;.#XfXhXhXpXpXwXqX%Xx.x.M.m.n.8.8.<.<.,.} _ ^ ) ` b ( O...} O.-.] ) ^ i. X        ",
"        }.[ v ) l s.fXlXgXlXgX-X&X#X5XZ.C.N.q.0.0.4.3.3.3.<.1.o.) ) v ` O.| ..o.] l ( ( ` @XvX      ",
"      yXf.v ) o.@.&XdXkXlXgX>X;X#X5XZ.D.N.q.0.2.2.<.3.3.<.3.2.2.,._ b ' | | ` ) k ( .._ k g.tX      ",
"      OX&.b | =.5XwX:X>XdXpX-X%X8XZ.S.B.8.6.2.2. . .<.<.<.<.<.3.4.1.` b ` ` x x ) ` ....) F oXI.    ",
"    .Xp.i ' [ d.eXdXdXpX=X=X7X8XD.N.B.q.2.6.2.,.^ ^ ..2.<.<.<.<.<.,.1.` l l v ) o.| | | ` l @..X    ",
"    {.) x $.p.5XfXgXdX:X=X%X8XD.N.q.8.8.5.1.O.| ( v ` O.1.2.<.<.<.<.<..._ ^ b ] o.o.| | ` v b oXzX  ",
"    f.b c m y.qXdXkXaX-X$X7X6Xm.q.6.8.7.-.` ) b x c b b ` O.,.<.<.<.,.1.O.( b ] ] ` ` ` ) b c h.vX  ",
"  nXf.d c x u.%XaXaX>X$X&X5XC.8.0.2.5.o.' x x x x x c d x ) } ,.<.<.,.,.1.) x ) ] ) c c d d a ~ uX  ",
"  yXE d ' #.g.%X-X,X+Xl.#XZ.m.8.2.<.O.b x x b ) ` ` ) x x x _ ,.<.,.,.,.1.o.x x p i x b ) ' c W |.  ",
"  |.W d ] %.#X;X;X,Xh.l.Z.C.n.6.<.,.o.x d c ` O...O.o.) v k l ..,.,.<...1.-.b x b ) ) ) ` ] b Z oX  ",
"  {.F n ' $.#X;X;X$Xh.j.C.m.7.5.,.1.o.d f d ` O.,.,.1.| ` ( ( ..,.,.,.....O.) x v ) ` ` ] ] m i u.y ",
"  e.N n ' %.%X-X%X$Xg.y.b.8.5.1.1.1.o.c f a b | O.O.O.O.o.O...,.,.,.,.,...O.` x b ' ] ) ` ) m u #.z ",
"w.r.j h m t.$X-X$X+XW s.7.1.2.,...O.o.b a a f d c ' $.o.o.O.......,.,...,.O.] d c b ' b ' ' n 1 &.z ",
"w.r.1 s d M h.~ ~ W F t.-.,.,.,.1.1.O.` x d d 5 s a d x ) o.o.| ..,.,.....O.] d a a a u u a s < &.Z ",
"e.f.1 s c M g.h.h.u.W p.O...,..... ...1.o.) x d a s d a u i ) -.....,.....o.] a a d d c x d f 1 W U ",
"T.OX2 h m #.j.l.g.u.F #.O.....,.,.......O.o.| ] ' c a a u a d b O...,.....o.' a n m m ' ' m n 1 E U ",
"  |.p f m ' t.y.y.&.M m o.............| | O.O...| | ` ) a 1 5 c o.| ......O.b a n S m b b ' n 2 E U ",
"  |.G a m ' t.t.t.D n n o.....} } | ` b b ) ` | | O.o.$.f 6 3 s o.| ....| o.c 5 f m ' ' m ' f u !   ",
"  W.G 5 c c D D j j g a ` | ....| | c 5 3 s b o.` o.] #.d 6 4 s ] o.| ..| ` d 6 5 s n c m m 6 N R.  ",
"  /.W < f s d u a f g a b ` ` | | | c 6 : 4 6 c b ' c n < 3 6 c ] | | o.` ) a s 6 3 3 < d h 4 R W.  ",
"  xX! < ; 3 a m m m m u a ) ` | ` o.` c 6 : 4 4 ; 3 4 4 4 3 d ) ` O.` o.$.d u c m n s s 5 < & Q P.  ",
"    ! a 3 h n m c b m n 5 d ] ` ` o.o.) f 6 3 ; : : : ; 3 f ) o.| ` ` ] n 5 d b c c n n n 6 < !.zX  ",
"    R.j , V A n m S h 6 : 6 m ) | ` ` ] ] m n g % ; s n ) ] | ` | ` o.m 6 4 6 h m x c f h 3 s !     ",
"    H.E 2 3 A h n V 8 - ; 3 1 ' ` ` ` ` ] ] ' m < < d ] ` ` | ` ` ` ' a 3 4 : 4 n b f c 6 & F T.    ",
"      (.R & f n h 3 % 3 n n , 1 b ' $.] ) ) ) ) a a b ] ` ` ` ) ' c a , a h 3 ; 3 s c n : 0 R.      ",
"        ! 3 ; 6 & 3 s n c d g < , a m ' ' ] ` ` ) ) ) ) ) ) ] m f < 3 g n S V g 3 ; 6 6 & ~.J.      ",
"        T.N = = < d c c f c V % = ; 4 s n ' ' ) ) ' ' ' m n s 5 < & ; 8 f c n n h 4 - % w Q.        ",
"          !.r @ f f c f c h : @ B 6 : ; 3 5 d x c c f s 6 : ; ; 6 g ; ; s f f n h B - * !.          ",
"          I.Q 4 % h g h h 8 @ 4 h h g 4 o ; ; & ; % ; ; : % ; g h h s = : g g h B ; ; R K.          ",
"            ^.T & % 8 B B X : g s f g ; : 8 8 8 - - 8 6 g 4 % g s f h 4 @ 7 C B = ; 0 T.            ",
"              /.R & ; 7 ; = 6 s f f g X 4 g h V = @ B g h 6 O 7 g h s s : - q - - L E.              ",
"                E.T & % . e g f f s 7 X g h d h = @ B s h s @ : 6 f s h e = @ * I Q.                ",
"                  K.Q & = - 4 f s h = = g s a f : @ g g d g > @ g f s 6 3 * & Q ^.                  ",
"                      Y L * & < 6 8 @ > 8 g f f : = 8 h s g q + e 3 4 & $ H U.J.                    ",
"                        E.Q w & % = + q q 8 8 6 : - 6 g 6 6 q # @ . - 4 H W.                        ",
"                            Y.T K t @ # + - : 4 - @ : : - @ @ . 9 L P U.G.                          ",
"                                J.Y.K q : - = = @ @ @ @ - : q K U.G.L.                              ",
"                                    J w 7 7 7 7 7 7 7 7 7 8 w H F.                                  "
};
