/* XPM */
static char *b941430e0cba4cb3a970d5e57581bb0cbRRj7GtfCJWBBeCx[] = {
/* columns rows colors chars-per-pixel */
"56 50 133 2 ",
"   c None",
".  c #030303",
"X  c #080907",
"o  c #0B0C0D",
"O  c #0C0E11",
"+  c #0E1115",
"@  c #0F1418",
"#  c #121415",
"$  c #11161A",
"%  c #14191E",
"&  c #191A19",
"*  c #161C22",
"=  c #191E24",
"-  c #1A2027",
";  c #1C242B",
":  c #1F2631",
">  c #1F2830",
",  c #222424",
"<  c #262827",
"1  c #21282D",
"2  c #2A2C2C",
"3  c #2F322D",
"4  c #36352C",
"5  c #202733",
"6  c #222B34",
"7  c #252E39",
"8  c #2E3334",
"9  c #27313B",
"0  c #29333E",
"q  c #313635",
"w  c #353835",
"e  c #363938",
"r  c #3B3F3E",
"t  c #2B3641",
"y  c #2D3945",
"u  c #2F3C49",
"i  c #313B44",
"p  c #313E4B",
"a  c #33414D",
"s  c #364552",
"d  c #384754",
"f  c #394856",
"g  c #3B4B5A",
"h  c #3A4B5A",
"j  c #3A4958",
"k  c #3C4C5B",
"l  c #3D4C5C",
"z  c #3C4D5C",
"x  c #3D4D5C",
"c  c #3C4D5D",
"v  c #3D4E5E",
"b  c #3D4F5F",
"n  c #3E4F5F",
"m  c #3B4C5B",
"M  c #3E4F60",
"N  c #3F5061",
"B  c #3F5161",
"V  c #3F5161",
"C  c #405262",
"Z  c #405363",
"A  c #415363",
"S  c #415465",
"D  c #425465",
"F  c #435465",
"G  c #435566",
"H  c #425567",
"J  c #435567",
"K  c #435667",
"L  c #445565",
"P  c #445767",
"I  c #415464",
"U  c #435668",
"Y  c #445768",
"T  c #455768",
"R  c #445769",
"E  c #435668",
"W  c #45586A",
"Q  c #45596B",
"!  c #46596B",
"~  c #455A6C",
"^  c #465A6C",
"/  c #465A6D",
"(  c #465B6D",
")  c #475B6E",
"_  c #475C6E",
"`  c #475C6F",
"'  c #465A6C",
"]  c #485C6F",
"[  c #485D70",
"{  c #495D70",
"}  c #4A5E71",
"|  c #4A5F72",
" . c #485D70",
".. c #4D6276",
"X. c #4D6277",
"o. c #4E6376",
"O. c #4C6175",
"+. c #4E6479",
"@. c #4F6579",
"#. c #50667B",
"$. c #53677B",
"%. c #51677C",
"&. c #51677D",
"*. c #50667B",
"=. c #52687D",
"-. c #536A7F",
";. c #53697F",
":. c #556C81",
">. c #556D83",
",. c #566D83",
"<. c #566E84",
"1. c #576F85",
"2. c #576F86",
"3. c #566D83",
"4. c #577087",
"5. c #587087",
"6. c #587187",
"7. c #587087",
"8. c #587188",
"9. c #597288",
"0. c #597289",
"q. c #59728A",
"w. c #5A738A",
"e. c #5C748B",
"r. c #5B748C",
"t. c #5B748D",
"y. c #5C758C",
"u. c #5C768E",
"i. c #5D768E",
"p. c #5C768F",
"a. c #5D778F",
"s. c #5C768D",
"d. c #5D7790",
/* pixels */
"                                                                                                                ",
"                                          * ; * 6 > 6 > 6 6 7 9 + 6 ; 7                                         ",
"                                    9 - 6 7 } y B } } } d 6 9 6 G a p 9 = y                                     ",
"                                u = y X.r.&.a a 7 } } } } y P ( 6 W p.} u + $ 9                                 ",
"                              0 t 6 f p.p.i G 2.6 ( G Y } } j A - p.l 7 :.l s 6 t                               ",
"                            p 6 ` ` s 0.p.:.y p.a 7 - - a P y - 0.p.0.0.p.p.A a a 6                             ",
"                          6 a } } } s 9 e.Y Y ] p.7 u l t y l k p.p.} G p.f 9 B } - *                           ",
"                        9 7 ` } } } ( 6 a j j B p.} 9 } ` } d 2.:.a d =.X.= U l } 6 ; 6                         ",
"                      5 o G } } } } } 7 # - - - - = O % % * + - = % - a p G ( j } ( ( ;                         ",
"                      $ p u A } } } } - . . . . . . . . . . . . . . . + j } W y } } ( 1 ;                       ",
"                    ; 6 W B ; ( } } } ; . . . . . . . . . . . . . . . 9 ( ( W l } l 9 0 9 7                     ",
"                    = +.G } f = + + = 8 e e e e e e e e e e e e e e e 2 # o % G ` - y f 0.y                     ",
"                    y r.r.2.0.l . . o 8 r r r r r r r r r r r r r r r < X . O j i j 0.5.p.y                     ",
"                    A p.G W 4.} o o & q r r r r r r r r r r r r r r r 2 # o o $ 1 p.5.:.r.Y 6                   ",
"                  : #.p.0.B % $ 3 r r r r r r r r r r r r r r r r r r r r r o . O G a s =.X.-                   ",
"                  ; $ % % $ . X 3 r r r r r r r r r r r r r r r r r r r r r o . . o O % % % $                   ",
"                  * t O o ; o X e r r r r r r r r r r r r r r r r r r r r r , # . 6 a u u p 9                   ",
"                  + ; M &.l o o r r r r r r r r r r r r r r r r r r r r r r r 4 . 7 9 s s 6 6                   ",
"                  1 =.0.0.&.+ o r r r r r r r r r r r r r r r r r r r r r r r 4 . t #.p.p.B $                   ",
"                  7 0.0.0.=.$ o r r r r r r r r r r r r r r r r r r r r r r r 4 . y p.p.p.d.B                   ",
"                  = y y y t o o r r r r r r r r r r r r r r r r r r r r r r r 4 . * p p p p 6                   ",
"                  + @ $ . + . o r r r r r r r r r r r r r r r r r r r r r r r 4 . o $ $ + $ +                   ",
"                  6 l 9 7 ; $ o r r r r r r r r r r r r r r r r r r r r r r r 4 . 6 l - 6 ( a                   ",
"                  6 p $ 0 y + o r r r r r r r r r r r r r r r r r r r r r r r 4 . ; p G 6 s a                   ",
"                  6 s * u s + o r r r r r r r r r r r r r r r r r r r r r r r 4 . 6 } } s t a                   ",
"                  6 z s s s + o r r r r r r r r r r r r r r r r r r r r r r r 4 . 6 } } U } a                   ",
"                  * 6 ; ; > o o r r r r r r r r r r r r r r r r r r r r r r r 4 . * y y y y ;                   ",
"                  ; u     a + o r r r r r r r r r r r r r r r r r r r r r r r 4 . 0 =.=.=.=.j                   ",
"                  = -     a $ o r r r r r r r r r r r r r r r r r r r r r r r 4 . y p.:.y f s                   ",
"                  -       p $ o r r r r r r r r r r r r r r r r r r r r r r r 4 . y p.p.:.O.7                   ",
"                  ; u     p $ o r r r r r r r r r r r r r r r r r r r r r r r 4 . y p.p.p.p.A                   ",
"                  =       y + o r r r r r r r r r r r r r r r r r r r r r r r 4 . 9 #.#.#.#.s 7                 ",
"                  +       * o o r r r r r r r r r r r r r r r r r r r r r r r 4 . % t t t t ; 7                 ",
"                          6 + o r r r r r r r r r r r r r r r r r r r r r r r 4 . 6 } } } } a 0                 ",
"                          6 + o r r r r r r r r r r r r r r r r r r r r r r r 4 . 6 } } } ( t 7                 ",
"                          - + o r r r r r r r r r r r r r r r r r r r r r r r 4 . 6 +.s y j *                   ",
"                            + o r r r r r r r r r r r r r r r r r r r r r r r 4 . 6 } W G ( a                   ",
"                            O o r r r r r r r r r r r r r r r r r r r r r r r 4 . ; B B B B t                   ",
"                          % X o r r r r r r r r r r r r r r r r r r r r r r r 4 . % 0 0 0 0 ;                   ",
"                            $ o r r r r r r r r r r r r r r r r r r r r r r r 4 . y p.0.2.p.A                   ",
"                            $ o r r r r r r r r r r r r r r r r r r r r r r r 4 . y p.5.X.:.j                   ",
"                            $ o r r r r r r r r r r r r r r r r r r r r r r r 4 . y p.p.t u 6                   ",
"                            $ o r r r r r r r r r r r r r r r r r r r r r r r 4 . y d.d.0.0.A                   ",
"                            o o r r r r r r r r r r r r r r r r r r r r r r r 4 . $ - - = = *                   ",
"                            # # e q q q q q q q q q q q q q q q q q q q 8 8 8 3 o                               ",
"                                                                                                                ",
"                                                                                                                ",
"                                                                                                                ",
"                                                                                                                ",
"                                                                                                                "
};
