/* XPM */
static char *b2a1d5d3bacd4edea2e1b1b8a639a6b2zD9brDY4NzxB4Pk8[] = {
/* columns rows colors chars-per-pixel */
"50 50 192 2 ",
"   c #1F2A35",
".  c #242C2F",
"X  c #232D35",
"o  c #232E3A",
"O  c #282F38",
"+  c #253036",
"@  c #25323C",
"#  c #29343C",
"$  c #2C393F",
"%  c #263442",
"&  c #2A3643",
"*  c #273A43",
"=  c #2C3944",
"-  c #26364A",
";  c #29374A",
":  c #273A4C",
">  c #2B3B4B",
",  c #313D44",
"<  c #323E4C",
"1  c #2C3E53",
"2  c #2A3F59",
"3  c #323F50",
"4  c #2B414D",
"5  c #354147",
"6  c #34434C",
"7  c #38434B",
"8  c #2D4254",
"9  c #2E4856",
"0  c #2E435A",
"q  c #2F4A59",
"w  c #344354",
"e  c #3A4653",
"r  c #354955",
"t  c #3B4B56",
"y  c #32455B",
"u  c #384759",
"i  c #34495C",
"p  c #3A4D5B",
"a  c #33515F",
"s  c #3E515C",
"d  c #2F4662",
"f  c #2F4A68",
"g  c #304761",
"h  c #344B64",
"j  c #394D64",
"k  c #344D6B",
"l  c #394F69",
"z  c #335264",
"x  c #3E5364",
"c  c #36526C",
"v  c #3C536B",
"b  c #36596D",
"n  c #395A6E",
"m  c #344F70",
"M  c #365272",
"N  c #3A5574",
"B  c #375C71",
"V  c #3B5D74",
"C  c #3A5779",
"Z  c #3D5A7C",
"A  c #3A6075",
"S  c #3C627B",
"D  c #414D5E",
"F  c #40535E",
"G  c #434F60",
"H  c #415564",
"J  c #435966",
"K  c #495B67",
"L  c #41556B",
"P  c #485669",
"I  c #445C6C",
"U  c #4A5D6D",
"Y  c #415772",
"T  c #435A74",
"R  c #435D7B",
"E  c #4A606E",
"W  c #466173",
"Q  c #4B6374",
"!  c #43627C",
"~  c #4A657B",
"^  c #4D697C",
"/  c #50657B",
"(  c #536B7C",
")  c #596F7F",
"_  c #3E5D82",
"`  c #3F6384",
"'  c #3F6887",
"]  c #405F82",
"[  c #426185",
"{  c #496584",
"}  c #456B86",
"|  c #4D6D83",
" . c #43648C",
".. c #496789",
"X. c #446C8C",
"o. c #4B6A8C",
"O. c #536B82",
"+. c #586F80",
"@. c #516D8B",
"#. c #4C7087",
"$. c #4C718B",
"%. c #507086",
"&. c #5A7284",
"*. c #52738B",
"=. c #5B738C",
"-. c #5E798D",
";. c #446691",
":. c #456A94",
">. c #496D95",
",. c #4B6C93",
"<. c #466B99",
"1. c #476D99",
"2. c #476D9B",
"3. c #4C6F98",
"4. c #496E9B",
"5. c #516E90",
"6. c #467496",
"7. c #4D7294",
"8. c #4C7896",
"9. c #477699",
"0. c #4A729E",
"q. c #4C729C",
"w. c #4D7C9E",
"e. c #537394",
"r. c #5B7593",
"t. c #567A93",
"y. c #5B7B96",
"u. c #52759C",
"i. c #567B9C",
"p. c #5A7D9B",
"a. c #607E96",
"s. c #617C98",
"d. c #476EA0",
"f. c #496FA0",
"g. c #4771A0",
"h. c #4A72A1",
"j. c #4F76A1",
"k. c #4B72A5",
"l. c #4B76A6",
"z. c #4B75A4",
"x. c #4B74A2",
"c. c #4E78A6",
"v. c #4C7BA4",
"b. c #4D77A9",
"n. c #4E79AA",
"m. c #4E7CAF",
"M. c #4E7AAB",
"N. c #5177A1",
"B. c #547AA3",
"V. c #5A7DA4",
"C. c #517BA8",
"Z. c #527DAB",
"A. c #577FA8",
"S. c #527DAC",
"D. c #597FAB",
"F. c #4E7DB2",
"G. c #517EB2",
"H. c #627FA3",
"J. c #5B819C",
"K. c #5C84A4",
"L. c #5E88A7",
"P. c #5681AD",
"I. c #5B81AC",
"U. c #5D8AA8",
"Y. c #5080B5",
"T. c #5583B4",
"R. c #5A85B3",
"E. c #5F89B6",
"W. c #5484BA",
"Q. c #5987B9",
"!. c #568ABD",
"~. c #5B8ABB",
"^. c #6585A3",
"/. c #6884A3",
"(. c #6089A6",
"). c #6084AD",
"_. c #628DAC",
"`. c #6889AD",
"'. c #6490AE",
"]. c #6187B4",
"[. c #6588B0",
"{. c #608EBC",
"}. c #6490B1",
"|. c #6894B5",
" X c #6B97BA",
".X c #6B99BA",
"XX c #5587C0",
"oX c #5689C0",
"OX c #5B8EC3",
"+X c #5B91C3",
"@X c #719FC1",
"#X c #74A2C2",
/* pixels */
"+ X + @ @ # y Z [  .:.h.1.:. . .;.;.N c C C C ` :. . ._ M M 0.c. ._ l 0 1 & @ X X o @ % > 1 8 y 0 1 ",
"1 @ 6 6 6 = Y A.C.C.Z.S.P.C.c.c.c.0.v V _ C N _ ;. . ._ N g q.z.;. .Z Z c y = . @ % > 8 h h c Z ] C ",
"N = s s p < > i N V [ ..o...[ [ { { y ..;.[ C _ ;.;. . .Z h 0.M.2.:.:.:.` v > X = y l l c N C Z  .:.",
"X.> x H H w $ @ @ @ + + o o o o o X o >.h.;._  .<.<.:.;. .v c.F.z.z.z.0.2...w + w Z _ _ Z ] Z [ ;.h.",
">.4 x J J s e 6 = = # X X X X o o o   q.z. ._ :.h.f.:. .X.h q.XXm.Y.Y.M.M.7.w @ p  . . ._ [ Z  .:.h.",
"3.w I T I H F x x p 6 = X X o % 0 - % j.M.0.2.k.k.h.2. .>.h y ..j.Z.T.R.T.u.& + r ;.:.2. .;. .;.0.h.",
"! w I W W I J I T I H 7 o @ % > C 0 - c.m.M.b.b.c.h.h.4.q.v o o o @ o % y j o @ p 0.b.h.0.0.j.j.M.M.",
"& $ v ~ ~ ~ Q ~ ~ ~ H t o & = -  .g 0 N.T.T.S.S.C.C.C.N.{ 1 @ # @ o X X o & o # p j.m.M.G.M.M.S.Z.>.",
"@ @ p | e.*.e.e.7.| J s @ < w % :.k 0 y h c h h j h h 8 % o & < = & # # # # & = r ! X.q.N.N.u.R w @ ",
"y = = s | K.p.i.u.K.*.x & w i - 0.k 2 % % @ @ % % % % % % % = < < < < = < < u 6 r = = > 8 1 & o @ % ",
"c y & = 6 H I H J p , , > j j ; j.Z M 0 2 1 : 2 0 2 2 2 2 % > 3 w u u u j j L p J p 6 $ & ; > y g h ",
"Z M 8 @ X # # # # # $ & i T Y - P.;._ C N C _ _ C Z Z k g = i i i j v l N T { x | ~ W = N [ Z [ _ N ",
"Z Z M = X & w < w u u w j { { ; T.1. ._ _ C :. . .0.;.] Z 3 v v v N N R R R ,.v i.i.| = ..0.:. .] Z ",
"Z _ Z 1 o = ! T T R Y j v o.{ ; R.j.:.;.:.;.:._  .h.:.0...w R [ R [ { ..{ ..i.< p p p $ ,.j.0.:. . .",
";. .;.y @ < o.{ { o.@.I x ,.o.> R.M.0.2.0.0.4.2.0.c.;.S.o.w o.,.o.o.o.7.,.7.V.# X X X & q.x.j.j.x.h.",
"x.0.j.y % u o.o.,.5.e.Q H u.e.1 ~.T.M.h.h.c.4.z.M.S. .R.,.e e.7.7.7.7.e.u.u.p.# o @ o & N.c.c.M.c.c.",
"S.M.C.i % p ,.e.e.p.^.U u O.T ; {.Q.M.h.0.h.h.S.G.R...A.e.t @.i.u.B.B.A.i.u.e.O & = & % P.m.M.S.M.M.",
"+XOXR.y ; p O.r.s./.y.w @ & o % V.P.Z.S.M.S.T.W.T.R.Y { x e T { 5.t.B.K.p.O.I # < < < # e.Q.!.W.W.W.",
"[ Z h ; ; = = w e w u = @ o o @ 8 l [ ,.u.C.P.u.{ v 8 8 % # & = = > w u p < & , u e w = w V q.A.Z.q.",
"% % ; 0 g y = & & @ > y g 0 ; % @ o o % ; 1 ; @ @ o o @ @ * = = @ @ @ X # # = e v j L j i 1 & & ; % ",
"c l c Z _ _ c l N 1 c _ ` M g g 1 > %         o * % % % > 4 9 y 8 8 = # = u u v T Y T T T N u @ h N ",
"Z Z [ _ _ _ _ _  .8 V  .C M M M k k 2 - - - : @ h q ; > 9 q z b i h y = e x v T R R R R R R i = Z N ",
" .h. . .;. . . . .> Z  . .:.:. ._  .M k f d k @ V n z h z z n V h n b 6 L ! ! { ..{ { R { ..x w ] Z ",
"z.:. .;.1.<.;. .,.; ]  .:.j.q.2.:. . .` C M Z % ! V z b b B V V b S S 6 Q o.,.{ ..,...o...o.L y .. .",
"b.M.h.2.2.h.0.0.,.% [ >.1.u.1.1.2.:.;. ._ C [ % V B b n B V A V V ! } = ~ ,.,.o.,.7.o.o.5.e.H h >.4.",
"k.h.f.<.<.h.h.h.[ o R ,.B.o.,.q.q.0.1.<.;. .o.@ n B B V V S S V B S } $ O.p.e.o.o.o.5.e.r.=.3 l >.4.",
"d.4.4.4.N.q.,.R 1 X > c Z l R Z ..q.q.j.B.u.u.o n ` S S ' ` ` S B V } $ G / =.y.p.H.H./.=.I > y { >.",
"y j h y 1 & o o X X X X X % ; 1 8 0 g y y j T o V 6.X.:.X.' X.X.` 6.#.$ # # # & & < D P H G % % % % ",
"o o o o o + @ % > 9 q 8 * @ X X X % % o o o o % i a n } $.! ! b i 9 * = & # # # X X X O # o @ % ; @ ",
"0 8 > < > 9 r 9 q b B b i 9 = @ + h 0 1 > 8 2 2 : : * 4 4 @ + + @ = , 7 7 6 < < = O X = g 1 - g M g ",
" . .[ [ j b z b b V V b z z q * @ Z g 0 0 l g g k g d 0 0 1 = 7 t t F s F F p p 6 # X < k 0 ; c _ N ",
"m.c.0.,.p n B A S V B b b B B 4 > ..N l M C M m M M M k M C p W I J I I I J H E F & o < N g g C C _ ",
"F.b.q.7.p A V A S V S B S S S 9 8 ,. .Z _  .Z C C N M M Z ,.v ^ Q E Q I I I I Q U = o w ] M Z _  .:.",
"F.W.,.u.p ! S S S S X.X.X.X.X.q 9 o.q.:.;. . .[ Z Z [ ..,.B.x ( Q J W W W Q Q ( ( < o u <._ :.2.b.z.",
"W.OXR e.u X.X.} ` X.6.9.6.6.8.z 4 j u.u.N.N.N.u.q.>.[ N ).[.x ( Q Q ~ ~ Q / ( ( ( 6 % y G.2.x.M.W.Y.",
"oXQ.j { 6 } 6.X.X.9.v.v.v.v.6.8 * > w u j j v R ! R l c { L 6 Q ( ( ^ ^ ( ( ( &.+.6 % y !.F.F.W.oXoX",
"l y & > @ 4 z z S 8.w.w.6.X.a * @ @ @ @ @ @ @ @ & % @ & @ @ @ Q =.&.( ( +.&.&.) K = % i E.C.u.o.[ R ",
"@ o X X X X * 4 > @ * * * @ X + % & @ @ X X o $ & = ; 1 1 y > K -.-.&.+.E t 6 , , & & h i 1 1 > % % ",
"# @ + @ # X X X X   X X   X @ 8 0 0 1 ; % @ = h N Z _ _ N Z y 6 6 , $ # + X X + & ; ; 1 ; & % @ o @ ",
", , $ = , = # + @ X + = 8 0 g g M c y 0 8 8 8 ,. . . .[ _ [ l 8 = & + = % % & = 1 8 1 1 > @ X = 5 5 ",
"7 7 6 7 p t 7 < 6 = = c N N k M N N M g 1 0 y ,.;. . ._ [  .Z C N N = h l 8 8 1 8 0 g k N i @ s s t ",
"H x s x J I T I ~ ~ r  .C M N Z C N M c c N y q.;. . . . . ._ _  .,.> v C g g y 0 0 g N [ Z $ I s s ",
"E J J I W *.*.#.J.K.H q._ Z _ [ _ _ C C _ ..8 q.;. . . .;. .[ ,.q.u.> v [ k g g g g l Z  .R $ W J J ",
"Q J I ~ ~ p.i.t.K._.U u. .[ _ [ _ _ Z _  .q.; q.;.>.>.>.>.>...B.B.V.> j  .M k c m k C _  .[ $ ~ W I ",
"E I | t.e.K.L.U._._.E A.>.X. .[ _ `  .[  .i.= q.>.N.B.u.1.B.T K.I.`.= h ;._ N Z _ Z _  . ...$ | *.| ",
"%.*.p.J.J._.'.K.*.a.7 y V o.u.>.;.>.>.q.B.t.; A.j.D.].I.V.V.u r.O.j $ j 2. .[ ;. . .:.;. .o.@ | | t.",
"t.y.(.L._.}.'.p.H p , ; > y h N R R ,.o.R i % { { ..v l j j = y % @ @ h :.:.:.g.4.4.z.:. .o.@ | J J.",
"_.}..X X|._.y.Q = = $ % & & % % % % 8 ; @ @ @ o o @ @ % @ @ X o o o o y :.0.k.b.F.G.S.u.e.N @ Q r *.",
" X@X#X^.^ Q 6 $ # & 1 0 h l 1 & % @ o @ % = ; & ; : ; & @ @ % ; : = @ p j.W.Q.A.q. .7.o.v w @ w $ Q ",
"s J F e w # + @ 1 g M N Z Z M l l N y y l k k c Z _ N g y g N Z c g ; & w h v h h y > = = & @ = # , "
};
