/* XPM */
static char *_f6ad8ae774245d7c85b328076efb700Ipekd7sIQrZvnHZv[] = {
/* columns rows colors chars-per-pixel */
"50 50 136 2 ",
"   c #383836",
".  c #3D3C3A",
"X  c #403F3C",
"o  c #43413E",
"O  c #464441",
"+  c #494744",
"@  c #4C4946",
"#  c #4F4C48",
"$  c #514E4A",
"%  c #55524E",
"&  c #58544F",
"*  c #575450",
"=  c #595651",
"-  c #5D5955",
";  c #605C57",
":  c #635E59",
">  c #66615C",
",  c #69645E",
"<  c #6C6661",
"1  c #6E6963",
"2  c #726C66",
"3  c #756F68",
"4  c #77706A",
"5  c #7A736D",
"6  c #7E7770",
"7  c #7F7871",
"8  c #837B74",
"9  c #887F77",
"0  c #887F78",
"q  c #8B827B",
"w  c #91877F",
"e  c #91887F",
"r  c #948B82",
"t  c #998E86",
"y  c #9B9087",
"u  c #9D928A",
"i  c #A1968D",
"p  c #A4988F",
"a  c #A69A91",
"s  c #AC9F96",
"d  c #AC9F95",
"f  c #AA9E94",
"g  c #ACA097",
"h  c #ADA097",
"j  c #AEA197",
"k  c #ADA097",
"l  c #ADA198",
"z  c #AEA198",
"x  c #AEA298",
"c  c #AEA299",
"v  c #AFA299",
"b  c #AFA39A",
"n  c #AEA299",
"m  c #B0A399",
"M  c #B0A39A",
"N  c #B0A499",
"B  c #B0A49A",
"V  c #B1A49A",
"C  c #B1A59A",
"Z  c #B0A49B",
"A  c #B1A49B",
"S  c #B2A59B",
"D  c #B1A59C",
"F  c #B2A59C",
"G  c #B2A69C",
"H  c #B3A69C",
"J  c #B2A69D",
"K  c #B3A69D",
"L  c #B4A79D",
"P  c #B4A79E",
"I  c #B5A79E",
"U  c #B2A59C",
"Y  c #B5A89E",
"T  c #B5A89F",
"R  c #B6A89F",
"E  c #B6A99F",
"W  c #B7A99F",
"Q  c #B7AA9F",
"!  c #B6A99F",
"~  c #B6A9A0",
"^  c #B7A9A0",
"/  c #B7AAA0",
"(  c #B7AAA1",
")  c #B7AAA0",
"_  c #B8AAA0",
"`  c #B8ABA0",
"'  c #B8AAA1",
"]  c #B8ABA1",
"[  c #B9ABA1",
"{  c #B9ABA2",
"}  c #B9ACA1",
"|  c #BAACA1",
" . c #B9ACA2",
".. c #BAADA2",
"X. c #BBADA2",
"o. c #BAACA3",
"O. c #BBADA3",
"+. c #BBAEA3",
"@. c #BCAEA3",
"#. c #BBADA4",
"$. c #BCAEA4",
"%. c #BCAFA4",
"&. c #BDAFA4",
"*. c #BCAEA5",
"=. c #BDAEA5",
"-. c #BDAFA5",
";. c #BBADA3",
":. c #BEB0A5",
">. c #BFB0A5",
",. c #BEB0A6",
"<. c #BFB1A6",
"1. c #BEB0A7",
"2. c #BFB1A7",
"3. c #BEB0A5",
"4. c #C0B1A6",
"5. c #C0B2A7",
"6. c #C1B2A7",
"7. c #C0B2A7",
"8. c #C0B2A8",
"9. c #C1B3A8",
"0. c #C2B3A8",
"q. c #C2B4A9",
"w. c #C3B4A9",
"e. c #C3B4AA",
"r. c #C3B5AA",
"t. c #C4B5AB",
"y. c #C4B6AB",
"u. c #C5B7AC",
"i. c #C6B7AC",
"p. c #C3B4A9",
"a. c #C7B8AD",
"s. c #C7B8AD",
"d. c #C9BAAF",
"f. c #C8B9AE",
"g. c #CBBBB1",
"h. c #CCBCB2",
/* pixels */
"r K K K K K K K h K { K K a - :.9.i.g.h.d.a.w.:.:.:.:.T T :.> ; &.K K T P K m K P A ^ { { P d K K 6 ",
"5 f ^ T T { P A d A K K K q # :.w.:.5.:.A X.t.:.:.:.:.P X.&., % P K m m K K K K K m K K { #.X.{ K > ",
"- i d d a i u q 8 3 2 3 2 @ O &.w.:.:.p f h :.9.:.:.:.:.&.A 5 o r A K x h h x K K K x h d f a a q X ",
". o O o X     + - < 5 5 > + . x :.P T d d x X.9.9.:.:.:.:.X.5   & 5 3 > = - - = = % # @ + O O O o X ",
"i y r 4 @   # r d X.&.X.T t @ t ^ X.T K K K K K P T T T T P 5   - p p f a i 5 @   : 5 8 q r r r t i ",
":.:.:.X.r o = A &.:.:.9.{ X.% 8 K K K K K K A d K T T K K K 3 $ d :.@.:.:.:.{ 8 # A :.:.5.5.:.&.:.:.",
":.:.:.i.T $ ; K d 5.:.5.K K @ 3 x K K K K K a d K X.^ K K K 5 , @.&.{ :.:.T :.r % A :.:.:.:.:.:.:.:.",
"@.:.:.9.X.% , X.{ w.:.:.5.f o 8 m x h K K K A A &.&.A d A K 8 , &.5.w.:.@.&.5.8 < @.:.{ m :.:.:.9.:.",
"A :.:.9.{ & 2 A K P X.^ ^ a X e K a f K X.:.9.:.{ K K K K x 8 ; T T { T m ^ ^ 6 8 :.&.&.&.:.5.5.t.T ",
"@.X.X.X.P = 4 K a K ^ { K a . 8 K A A &.P K K K K K K K K h 9 - A d K P K x K 8 r { P T { &.:.&.&.&.",
"K P P K m - 1 m T #.K x K i   @ t i K K K K K K K A A K h t , % x K K T T A d < y K x A K K K P P K ",
"P P K K A - $ w i u y y i 5     $ : 2 3 5 5 6 8 8 8 8 3 - @   . q t r q 5 , $ . y K h K K K K K K K ",
"A f K K a = $ , 3 2 : - = @ $ : 3 6 8 5 : o   % 2 5 4 1 2 2 -   o 2 3 > - : =   q K T K K K K K K T ",
"x h K K h & q P :.X.K d d d A A :.:.:.5.A 3 . t :.:.:.&.:.&.m $ 5 :.:.X.{ X.f @ 1 K P P K a x K T P ",
"K K K K u = m X.x 5.:.:.:.:.:.K :.w.&.{ t.r O m :.w.w.w.{ T :.< 8 :.:.:.T d X.< o t h K K K K K K K ",
"i a d d 4 : x A x P X.{ X.T X.&.X.#.T K T u O d K T :.d.a.t.:.2 8 :.P :.:.5.:.8   $ 8 i d x x x d i ",
"O O + # . ; t d h x x K T &.{ h a d h m x r O a :.:.:.i.:.:.9.2 q &.m :.5.5.:.u . O o @ - : - % @ O ",
"  3 i t 8 , % @ + @ % ; , , = $ @ $ % = - # . r ^ :.X.^ ^ P X.2 q :.:.w.5.:.9.a + f P a u i u y 9 @ ",
"@ T :.:.:.5.w.&.K K A h a y - o 5 8 5 4 5 3 O p T P K K x m K 2 q :.w.5.:.T 5.d - T :.5.:.T X.9.:.q ",
"- &.{ A :.:.:.9.9.:.:.:.:.X.5 2 T :.5.@.X.h % a K x K K K P m 8 5 :.5.:.:.:.t.m < T X.{ { @.&.{ T a ",
"= X.T ^ ^ T d P X.&.X.^ T K , r :.:.X.P w.:.% 8 m K P P P K d 3 , &.X.X.X.&.:.a > m K T K P T T K a ",
"= A K X.^ K A T T K A h A h @ i &.A 5.X.:.X.% o ; 1 5 6 5 5 : . : ^ K K K d P r @ r q < 2 4 4 2 5 < ",
"o 5 w w r r q 6 4 1 , , > $ . a :.9.t.@.A T # - 2 5 8 3 , > ; . > K K K A x K w . o , 8 6 5 8 5 2 % ",
"r 6 3 < .   X : 3 8 9 8 : .   8 &.:.:.@.X.K # u :.:.:.:.X.:.X.2 : K K { K K K i o : { :.5.X.:.T X.{ ",
"9.5.:.@.: $ t d X.&.&.@.A 9   > A T X.X.X.x # r @.T w.9.:.P K 8 - A d &.K K K x % 8 :.&.X.w.:.X.:.:.",
"T &.:.5., 1 X.X.:.9.:.:.&.t   = m x P { m d $ r @.&.5.:.:.5.:.w % K K { &.K K K 2 8 X.A K :.w.:.i.X.",
"x { &.T , 4 &.X.K t.:.A x 8   - K h &.^ a x * r ^ ^ X.X.{ ^ { u $ A K A { T K K 5 8 P T T { X.X.@.X.",
"K K K K > 8 :.T d 5.5.{ T 5   < P ^ &.P { m = 8 K K T &.m K K i # d K f ^ ^ K A > 5 K { T T P X.K K ",
"K m x m - 8 :.:.&.t.:.:.:.r   4 ^ T A A P f # 1 K K A X.{ K A w O a K K P { K m $ , x ^ K h x K K K ",
"h x d u O 2 :.9.9.:.X.:.:.i . % y u i u y 5 . = d m { ^ P X.a >   q f d a a i u O + y A K h f a a d ",
": : - O   % A { T f f T X.p o   % - @   . O + . # = - : > > %       . @ $ $ @ o     % < > % + O $ = ",
"A K A f 8 $ a K K x A K K p o r :.5.:.{ A f h x i w q q r u 5 .   > w h { &.X.m r q q q w i d A T T ",
"a X.:.i.d = a K K K K K K f @ X.:.X.X.t.:.:.:.:.:.:.:.:.:.&.d : O i :.:.P T :.5.i.t.9.:.T x X.t.:.A ",
"9.9.9.:.d % i K T T T T K d + { :.A X.w.:.:.:.:.:.{ h T 5.5.&.r @ T :.:.d &.a.d.:.:.t.:.:.:.:.w.i.9.",
"^ T T T i $ u K K m d P T f O u K P T T ^ { T P P A m { ^ K K t + m X.T T { { { { T A T { { { { { ^ ",
"A K K K y % a K K m f K K u O r K K T h T #.^ K P X.^ K K K K t . y A K K K K K K d x K P X.#.#.&.&.",
"h m K A 8 % u x K m K x a q . % u x P T P A m h a a f d h K x 8 . q d m A x x f A K K K ^ T K K K K ",
"r 0 5 < + . = 4 5 3 , % @ o     @ , 1 1 , > - $ O O @ % = : ; O   # = - : : : - > < 3 8 w t t r r r ",
"& - : % . O 8 w 5 < < 1 1 2 4 4 5 5 5 5 - . % t r r q 8 3 2 2 5 q q r r w 0 5 > %   . $ - > : : - = ",
"A T X.i : # K :.&.X.X.X.X.X.&.x T :.:.w.i $ 5 :.:.:.:.:.X.X.X.:.&.&.:.t.{ K { r 8 o q T A X.X.X.m P ",
":.X.:.:.r $ T { :.:.w.w.t.:.t.X.:.:.:.5.5.: w &.A &.:.:.&.x P 9.9.t.t.:.X.X.&.&.r + T &.A X.:.5.X.:.",
"h x X.:.h = d K T T { T T &.&.&.&.h A { #.< q A d ^ T P P X.{ { { T X.5.X.{ { P r - T A d T X.X.X.{ ",
"K ^ { K d - p K K K K m x K K K K A K ^ A , 2 x X.T K K K K K K K a x K #.X.{ T t 3 K ^ &.^ m A K K ",
"A d d u 3 . > 5 5 7 8 0 q w r r u u r y q # X 8 a d i d h x x x K K K K K K m a 5 - d K X.^ ^ x K K ",
": = % O o @ % & - - - % o     o % - : ; % @ O o @ % % = - = : 5 q q 8 8 8 8 1 = o   @ ; < 3 5 2 2 < ",
"O 5 8 8 t m T A T T T x q O   8 x ^ { T m d x u w 8 8 0 q ,     . & , 4 5 4 < : - > < 1 > & @ .     ",
"6 X.&.:.:.:.&.A x :.:.:.{ 2 . A :.:.:.:.5.9.5.9.9.5.:.5.X.x $ . q &.&.w.9.5.:.@.{ A 9.w.9.^ d w %   ",
"i :.5.9.:.:.X.P @.:.:.9.:.u # &.:.:.:.:.5.t.:.:.:.:.w.t.:.:.3 O :.:.:.:.:.:.:.:.:.&.:.:.X.&.w.@.f o ",
"i :.h @.w.5.5.9.:.:.:.h A f - X.:.A T :.5.w.:.T h A :.:.t.:.8 $ w.:.:.@.A T 9.9.:.:.:.{ { :.w.9.&.- ",
"u ^ P T X.{ { ^ T P &.m A d : T X.d X.:.d.5.:.:.X.X.:.:.9.w.3 ; 9.&.&.&.@.9.:.@.:.:.:.:.:.:.:.:.X.3 "
};
