/* XPM */
static char *player21708774143[] = {
/* columns rows colors chars-per-pixel */
"44 50 206 2 ",
"   c None",
".  c #290000",
"X  c #360000",
"o  c #3D0000",
"O  c #4D0000",
"+  c #5D0000",
"@  c #5E0B18",
"#  c #650000",
"$  c #6B0001",
"%  c #710000",
"&  c #790102",
"*  c #7D040B",
"=  c #7C0F15",
"-  c #711C21",
";  c #163A6D",
":  c #053F7D",
">  c #06397A",
",  c #153D73",
"<  c #163976",
"1  c #213C6B",
"2  c #203A75",
"3  c #1D4175",
"4  c #07427C",
"5  c #314D74",
"6  c #2D537A",
"7  c #42486C",
"8  c #8A0B12",
"9  c #8C141B",
"0  c #891618",
"q  c #991719",
"w  c #82050D",
"e  c #831B24",
"r  c #961520",
"t  c #AF1A25",
"y  c #8E2124",
"u  c #9C262C",
"i  c #AB2729",
"p  c #B72229",
"a  c #BB312E",
"s  c #B82D34",
"d  c #AF3235",
"f  c #BF3134",
"g  c #BC3339",
"h  c #B73036",
"j  c #AB2E36",
"k  c #FE100E",
"l  c #FD0E15",
"z  c #FC0E1C",
"x  c #F60F18",
"c  c #ED171F",
"v  c #E81A1C",
"b  c #F61415",
"n  c #FD1416",
"m  c #F61B16",
"M  c #FD1A16",
"N  c #F4151D",
"B  c #FE151C",
"V  c #F51B1C",
"C  c #FD191D",
"Z  c #F60A0E",
"A  c #DC201E",
"S  c #FF211E",
"D  c #E7221C",
"F  c #CA1F2F",
"G  c #D51C24",
"H  c #DD1D2B",
"J  c #D91D28",
"K  c #E41624",
"L  c #ED1D23",
"P  c #E41D2A",
"I  c #EC1C2A",
"U  c #EB1625",
"Y  c #F51522",
"T  c #FE1522",
"R  c #F41B24",
"E  c #FD1A23",
"W  c #FE1528",
"Q  c #F41B2B",
"!  c #FD1B29",
"~  c #F41C31",
"^  c #CC232D",
"/  c #CA2C2D",
"(  c #C7282A",
")  c #D52325",
"_  c #DE2324",
"`  c #D3242D",
"'  c #DC232B",
"]  c #DE2B2E",
"[  c #D32A2A",
"{  c #C2312C",
"}  c #C42C34",
"|  c #CB2C33",
" . c #CB2D3A",
".. c #CD2636",
"X. c #DE2432",
"o. c #D42B34",
"O. c #DB2B33",
"+. c #DD2B39",
"@. c #D72736",
"#. c #C63034",
"$. c #D43539",
"%. c #D7393A",
"&. c #D2352E",
"*. c #E62226",
"=. c #EB2024",
"-. c #E2232B",
";. c #EC222C",
":. c #E4282D",
">. c #E9292A",
",. c #F72129",
"<. c #E42432",
"1. c #EA2534",
"2. c #E32A35",
"3. c #EA2A35",
"4. c #F32234",
"5. c #FF2231",
"6. c #E3323D",
"7. c #EA313F",
"8. c #DA4139",
"9. c #D43842",
"0. c #DE3A43",
"q. c #D93946",
"w. c #E23B45",
"e. c #B94244",
"r. c #C3454C",
"t. c #D5454B",
"y. c #D94B53",
"u. c #D45559",
"i. c #D95457",
"p. c #E1454B",
"a. c #E54654",
"s. c #E55659",
"d. c #E5675B",
"f. c #D95261",
"g. c #EA5964",
"h. c #DB6166",
"j. c #D96B76",
"k. c #E66768",
"l. c #E87877",
"z. c #F77A7B",
"x. c #F2686D",
"c. c #F7877C",
"v. c #023D83",
"b. c #083884",
"n. c #04458F",
"m. c #3B5D8A",
"M. c #495A88",
"N. c #506D97",
"B. c #576089",
"V. c #656B8D",
"C. c #6077A0",
"Z. c #93728F",
"A. c #E97886",
"S. c #FF7E83",
"D. c #7B879F",
"F. c #7089A8",
"G. c #8B809E",
"H. c #B790AB",
"J. c #95A5BE",
"K. c #FD8E8F",
"L. c #F9848A",
"P. c #F99799",
"I. c #FC9DA5",
"U. c #FFACAC",
"Y. c #FFA6A6",
"T. c #FFB1AF",
"R. c #FFA7BE",
"E. c #FFB3B1",
"W. c #FFBBB6",
"Q. c #FFBABB",
"!. c #92ACD1",
"~. c #B8BCDF",
"^. c #B2B4C9",
"/. c #D3B2CD",
"(. c #B5C1DB",
"). c #B6CAE7",
"_. c #BECAF2",
"`. c #FFC3C2",
"'. c #FFC8CE",
"]. c #FFD3CE",
"[. c #FFCCD4",
"{. c #FFC7D4",
"}. c #FFDCD8",
"|. c #FFE4DB",
" X c #C1CEEE",
".X c #C7D6F7",
"XX c #FFC8E1",
"oX c #FFD8E4",
"OX c #D7EAFF",
"+X c #FFE5E2",
"@X c #FFEDE6",
"#X c #FFECEA",
"$X c #FFF4EC",
"%X c #FDFAEB",
"&X c #E8E5FB",
"*X c #FFEDF4",
"=X c #FFEBFC",
"-X c #ECF5FF",
";X c #EEFAFC",
":X c #FFF5F2",
">X c #FDFCF4",
",X c #F2F7FF",
"<X c #FEF3FD",
"1X c #F3FDFE",
"2X c #FEFCFD",
"3X c #F5F5F7",
/* pixels */
"                                                                                        ",
"                                                                                        ",
"                                                                                        ",
"                                    u.i.y.t.q.a.g.y.r.                                  ",
"                            i.p.+.' H P 4.4.~ U K 1.2./ 9.y.g                           ",
"                        r.w._ U Q ! T W T T T T W W Y Q 1.;.<.0.e.                      ",
"                      q.X.;.Y Y E C N T B C B B W B T C Y N R ;.O.t.                    ",
"                    7.U ! T z ! C C C M B n B C B C E M T E T N Q ' q.                  ",
"                  3.Y B B E W E E C C M B B B B B B B C T C V T B E I O.9.              ",
"                ;.E n n B T Y E C B B C B C C C B B C C C T E C B B W U O.d             ",
"              O.D m M M B B W W T B B T B T B T C C C T T T T B C B C b Q +.u           ",
"            6.v m m S M M B W ! T T T B T T T B T T T T C T T T W M M m E v 0.=         ",
"          9.U 5.m m M n B B E Y T T T B C T B T T B T T T T T T T T V m M Y I  .        ",
"          K Y B B M n B B B C m C Y B T T T T T T T T B T B T z E Y V V B E T <.y       ",
"        ` ,.E l B B T W T C M m V C T E V T T C B T E B T M T T W E E T B l 5.A g       ",
"        :.Y B T B T W T T Y =._ :.o.] ] *.=.N N C E C C C C R L P 2.+.2.:.v L *.@.r     ",
"      ` Q T W C C M n M E ;.9.K.`.[.[.U.k.[ V m Y ! Y E l V *.$.z.T.[.[.W.c.&.-.L ..    ",
"      ;.E B Y E b S n b P y.{.#X>X2X<X<X}.L.] R Q E ! B B R %.U.|.>X*X<X<X+XU.$.P X.@   ",
"      Q E T W T E n B 5.$.`.@X>X>X2X1X,X2X*XS.:.Q T T T T 3.I.$X%X>X2X<X,X,X<XQ.+.+.e   ",
"      Y T T T W T n W I l.#X%X1X2X,X!.m.6 ^.[.t.Q ! z ! Y a.@X%X>X1X-X_.N.5 D.oXg.@.u   ",
"    +.c B T W T C ,.T _ E.$X2X1X;X).< v.v.; /.f.' C T B *.z.$X>X2X2XOX; > 4 4 Z.L.} i   ",
"    O.N B T T T Y Y Y 6.`.>X3X,X;XF.< b.n., Z.A.) C C b ] K.@X>X2X2X)., v.n.4 7 I.a a $ ",
"    X.V n M B W C R Q w.W.$X2X2X2XJ.< b.n.; H.j.' C l Y X.K.:X>X2X<X.X; > v.> B.P.a } & ",
"    ' T B B z T E Y E ' P.$X*X2X1X&XM., ; B.XXf.;.C B ! <.x.+X2X<X2X-XC.3 , m./.A.( | & ",
"    P T B B B T C C T I i.+X$X$X>X3X,X).~.=XR.@.Q B T E Q q.'.$X>X2X1X1X X~.&X{.9.:.|   ",
"    P B n n B B B B E Q ^ K.}.$X%X>X2X*X<X{.q.4.Y T C T T P k.].%X$X:X2X<X=XoXA.1.;...  ",
"    P T n B B B E B n E P $.z.`.#X$X@X|.Y.p.P W E B B C B ,.) k.E.+X$X@X+XT.g.X.R Q  .  ",
"    -.T M M B T M C B B E U O.t.j.l.l.s.$.U T W T B C C n T Y G %.h.l.l.d.8.-.R B R  .  ",
"    ' T C C B T C C C C B W Q K ' 2.>.D V C C B B T C V T N E Q P ' O.) A D V C B L  .  ",
"    -.V C m T T E C m M B W z ! V Y b C n Z E B E B N C T 5.T W Y ! E Y S C V C B R |   ",
"    ' T B C B W z ! M l B W B W W T E C T ! x E C B C S x E B z ! z B E l B ,.B M R o.% ",
"    P C M M B T T B B E B n E B T T T C Y E ! C C B n B C B B T z T B B B B T T B =.o.% ",
"    -.M n M M B B B T T z B B B T B T T T T T B B n M M C C T T T B B B n B M T T W o.$ ",
"    -.C B B B B B T W T W B B M B B B T E E T B B n B C C C B T T T B B B B C T W Q ..$ ",
"    ) C B z B B B E Q Q T B M B B B C E R E B B z z B B T C C T T T T B M C C E W ~ } $ ",
"    ) R T T T T Y E R E E M C C B B Y V R E T W W T T W T C C T W W T T C V N E W I } $ ",
"    ' T T E W T W E W T C M C B B B C E C T T T T W W E W T B T T W T T T B V R ! Q | % ",
"    ' W E W W T T B B B B B B C B B C C B B T W W W E Q E B C B B T W T T C E V W I o.$ ",
"    -.! T W T W M M B B B z B T B T B C M C B C Y E R W T T B B B B T T T T M B B Q | $ ",
"    ' E T T T B M M B B B B B T T T B B M M B M C E E T T T B B B B C T C C B B B L | $ ",
"    :.B E C M M M l B C n C ! T T W B n B n n M C C B T T T T M B M B T T B M n B R #.$ ",
"    P B B B C C M C C C R C z T W z T T B M C C n T B l E T B C M C B T T T M M B R / $ ",
"    -.B T C C m b E E Y R R Y W E Y E T N C E N N C C B B B B T N b E 5.Y N B n B Y / # ",
"    -.T C B E U ;.G J 1.I R E C T ! R I 1.J G :.;.N T T B B C N Y *.X.` H Q W B n R #.# ",
"    ' E T z Q <.t * w p X.I E E C Y Q X.p * $ 9 ^ I W T E E C N L ` 8   r +.Q B T R f + ",
"    ] N Y Q J r         t -.R B C R -.t + . . X * F 4.Y R E V ;.^ 8         G ! W P f + ",
"    ] N P o.0             p =.n l ,.a $           = ^ I T B V ) 0           0 o.U P s + ",
"    ( 2.(                   ) =.L ) 0               r o.P Q [ q               q ` ` j O ",
"      d                       h f 0                   e f #.0                   u d - X ",
"                                                                                  # o   "
};
