/* XPM */
static char *_e3d6efd74964791c9469b697fd6e9a93FbZPUuwKMvschdQ[] = {
/* columns rows colors chars-per-pixel */
"50 51 170 2 ",
"   c #0B1017",
".  c #0E141D",
"X  c #10151F",
"o  c #0F1620",
"O  c #0E1926",
"+  c #0F1B2A",
"@  c #111721",
"#  c #131925",
"$  c #161D2B",
"%  c #181F2E",
"&  c #0E1E32",
"*  c #111F33",
"=  c #0F202F",
"-  c #16202F",
";  c #18202F",
":  c #0E2334",
">  c #0E2638",
",  c #0E293E",
"<  c #142233",
"1  c #1A2333",
"2  c #14253A",
"3  c #1C2639",
"4  c #14293D",
"5  c #1D293C",
"6  c #20293C",
"7  c #0F2540",
"8  c #0D2E44",
"9  c #0F2C49",
"0  c #142741",
"q  c #142C43",
"w  c #1A2B43",
"e  c #142D4A",
"r  c #1A2E4B",
"t  c #0E344D",
"y  c #133047",
"u  c #13324B",
"i  c #1B324E",
"p  c #0E3752",
"a  c #0D3955",
"s  c #0D3D5C",
"d  c #133551",
"f  c #1B3453",
"g  c #133955",
"h  c #13375B",
"j  c #1A365A",
"k  c #133C5B",
"l  c #1B395C",
"z  c #202C42",
"x  c #0F3C60",
"c  c #153C62",
"v  c #1B3A62",
"b  c #1C3F69",
"n  c #0F405F",
"m  c #11405F",
"M  c #0D4263",
"N  c #0D4569",
"B  c #0C4A6E",
"V  c #134263",
"C  c #1C4366",
"Z  c #13466A",
"A  c #1A426C",
"S  c #12496D",
"D  c #1B486B",
"F  c #0D4D73",
"G  c #1D4672",
"H  c #134D73",
"J  c #1B4973",
"K  c #1C4F7F",
"L  c #0D537B",
"P  c #11527A",
"I  c #1B517B",
"U  c #22446D",
"Y  c #204673",
"T  c #224976",
"R  c #204C7B",
"E  c #0A5782",
"W  c #0D5781",
"Q  c #0B5884",
"!  c #0A5984",
"~  c #0C5C8A",
"^  c #0E5E8D",
"/  c #0C5D8C",
"(  c #125682",
")  c #1D5384",
"_  c #145B86",
"`  c #145B89",
"'  c #135F8C",
"]  c #1B5B8B",
"[  c #235780",
"{  c #215380",
"}  c #28578A",
"|  c #225B8C",
" . c #0D608F",
".. c #066597",
"X. c #0B6394",
"o. c #0B6497",
"O. c #0C6495",
"+. c #096799",
"@. c #076A9E",
"#. c #0B6B9F",
"$. c #0A699D",
"%. c #146593",
"&. c #196493",
"*. c #1F6698",
"=. c #13689B",
"-. c #136A9F",
";. c #23628E",
":. c #266296",
">. c #216D9C",
",. c #2A6A9E",
"<. c #20749F",
"1. c #0B6EA5",
"2. c #196FA4",
"3. c #0B71A7",
"4. c #0772AB",
"5. c #0873AC",
"6. c #0A71AA",
"7. c #1674A3",
"8. c #1E72A4",
"9. c #1375AB",
"0. c #157CAE",
"q. c #1D7CAE",
"w. c #1C7AA2",
"e. c #0A7AB6",
"r. c #067DBC",
"t. c #0C7DBB",
"y. c #236FA4",
"u. c #2A6BA0",
"i. c #2877A4",
"p. c #2379A3",
"a. c #2776A8",
"s. c #207AAA",
"d. c #287FAD",
"f. c #1F82B0",
"g. c #2280A7",
"h. c #2780AB",
"j. c #3080AC",
"k. c #2785B7",
"l. c #2286B3",
"z. c #2C85B5",
"x. c #248CBA",
"c. c #368EB3",
"v. c #2D91BF",
"b. c #3293BF",
"n. c #3892BC",
"m. c #4194BC",
"M. c #0587CA",
"N. c #058ED5",
"B. c #2E9DC9",
"V. c #3398C2",
"C. c #389EC4",
"Z. c #3D9FCB",
"A. c #2FA0CD",
"S. c #27A0D3",
"D. c #24AADC",
"F. c #39AED7",
"G. c #32B1DE",
"H. c #3DB2DB",
"J. c #039DEC",
"K. c #41A6D2",
"L. c #48BADF",
"P. c #45BCE2",
"I. c #4CBDE0",
"U. c #4DC2E5",
"Y. c #42C8EE",
"T. c #50D0EF",
"R. c #59D7F2",
"E. c #63D1EB",
"W. c #69EEFF",
"Q. c #70EEFD",
/* pixels */
"% ; 1 1 1 1 1 1 q N.E @ @ @ @ o o o @ @ @ L 2 < - < 2 0 2 $ # @ o o o F # $ $ $ $ $ # # # 4 # # # $ ",
"; 1 1 1 3 1 1 1 ^ M # @ @ @ @ @ @ @ @ @ @ E % ; - % % % % # # @ @ o . F # % % % % $ $ $ # M # $ $ $ ",
"1 1 1 1 1 3 1 S M # # # # # # # # @ @ @ @ L % 1 1 - % $ $ # # # # @ @ 4.% $ - 1 - % % $ < 5.# $ % % ",
"1 1 3 5 w w w N # # # # # # # # # # # # < g 3 3 1 1 - % $ $ # # @ # / u Z u $ $ % % % $ 4 ~ $ % ; 1 ",
"1 1 3 w v G #.% $ $ $ $ # # # # # # # # B ; 3 3 3 1 1 - % $ # # $ n < X $ S P 4 $ $ $ 2 g o.$ $ ; 1 ",
"1 1 3 j z.U.] 2 < % % % $ $ $ $ $ # # # W 1 1 1 ; 1 2 2 % # # q H w < $ $ 3 i E s F E L L +.g $ % ; ",
"% 1 V ( k.H.G 4 1 - - % % % $ $ $ $ $ # #.V g g Z H A A g g L t.C Z N 4 $ # # # @ @ @ @ @ # ! S % % ",
"r.L 2 w j ` e 3 1 1 1 1 - - - % % % 2 u k 1 ; % q %.H.Y.=.d 1 2 % % % % $ $ # # # # # # # # # < F Z ",
"< % 1 3 4 e 1 3 1 1 1 1 1 1 1 ; ; 3 [ l.e 1 - % % q I 8.f 3 1 1 1 1 - - % $ $ # # # # # # # # # q 1.",
"$ $ % ; q q 1 1 1 3 3 3 1 1 1 1 1 3 B.j.e % $ $ # % < F 3 1 1 1 3 1 1 1 - % % $ $ $ # # # # # # X.a ",
"# $ $ $ u u 1 1 3 3 1 1 1 3 1 < S 7.0.q 2 < $ # @ @ @ > ^ 4 ; 1 1 1 1 1 1 ; ; % % $ $ $ $ $ $ % ~ @ ",
"# # # $ S P 1 1 3 3 3 1 1 1 g O.P l Z h d 0 $ @ : p p q q F k d m q % % % % % ; % ; % % $ $ $ q N @ ",
"@ # @ N 4 4 k 1 1 1 ; 1 < 2 q 1 1 5 j >.v.J 9 < 4 4 $ $ $ # @ , L H L ~ u $ $ % 1 w w 3 1 $ u O.s . ",
"X @ q d . @ k k Z H u 2 $ % ; 1 3 5 v n.W.A.k 3 1 - % $ # # @ X d % % 2 S S d u w b R j q q u $ 2 . ",
": t D w % % 6 H : @ # # # $ % - 1 3 f ] y.G i 3 1 - $ $ # # @ . d $ % % % % % u ( S.P.y.j 1 $ $ 4 ! ",
"2 $ 4 N F g H = X @ @ # # # $ % ; 1 3 Z j i 5 1 ; % $ # # @ @ . F $ $ $ $ $ % < f ,.G.{ r < # # a 4.",
"@ @ # # # $ < u t o X @ @ # # # $ $ % k 3 3 3 1 - $ $ # # @ @ O 3.e % # $ $ $ % q v 9.f 2 $ # # F # ",
"# # # # $ $ % % M M a + X @ @ - 2 q g S 1 1 1 1 - $ $ # # @ @ 7 B.;.< # # # # $ % < k Z 4 q d s : @ ",
"# # # $ $ % ; 1 t @ - t B p E L q < # F 1 1 1 ; % $ # # # @ o & _ V $ # # # # # # $ $ $ # $ 4 4.@ # ",
"# $ $ $ % ; 3 l P # # # $ q L @ # - # s y 1 1 ; % $ # # # @ o . p < @ @ @ @ @ # # # # # # # g #.# # ",
"# $ $ % ; 1 r m.c.2 # $ % % k @ @ @ # < g 1 1 % $ $ # # # @ o . M : @ @ @ @ @ @ @ # # # # # u q # # ",
"$ % % ; 1 1 w h.J < $ % ; 1 k a , = * J >.w 1 % $ $ # # # @ o . F t X X X @ @ @ @ @ # # # # k # # # ",
"% ; ; 1 1 3 3 _ < % % 1 1 1 Z f f f k i.b.k % % $ $ # # # @ @ @ V S g 8 . . X X @ @ @ @ # # M # $ $ ",
"; 1 1 1 1 1 1 g # % 1 1 3 1 ^ 1 5 5 5 f f V k % $ $ # # # @ @ < 5 5 3 k t . . O # @ @ @ @ 4 k $ $ % ",
"1 1 1 1 1 3 1 u $ $ % 1 3 1 O.1 5 6 5 5 3 1 2 H < $ # # # # < 1 3 3 3 3 1 u L &.Z 2 4 q d ' X.$ % ; ",
"1 1 1 1 3 3 1 ^ W g ; ; 1 3 ` 1 5 5 3 1 3 1 1 2 Z g u u V H 3 1 1 1 1 1 1 1 i z.s.r 1 1 1 1 ( q % 1 ",
"1 1 1 3 6 1 V < 2 Z P w 1 k 3 1 5 5 1 3 1 1 1 1 H 5 6 6 3 3 g 1 3 3 1 1 1 1 3 f r 3 1 1 1 1 3 P % 1 ",
"1 1 3 3 1 k 2 $ % % ; 1 w e.1 5 3 1 3 1 1 1 3 f 9.f w 3 3 3 5 ' J f 3 1 1 1 1 1 1 1 1 1 1 1 1 f 5 1 ",
"1 3 3 3 H g # $ $ % ; 1 1 6.1 3 1 1 1 1 ; 1 q | P.T w 1 1 1 w [ I.[ 2 ; ; ; ; ; 1 1 1 1 1 1 1 5 V 1 ",
"1 1 1 S q # # $ $ % ; 1 1 S q 1 3 1 1 ; % % q | L.Y w 1 1 1 3 l i.' % $ $ $ $ % % ; % % 1 1 1 1 X.Z ",
"q i H 2 @ # # # $ % ; 1 1 3 k 1 1 1 ; % $ $ < k f.r 1 ; ; ; ; 2 H ~ < # # $ $ $ $ $ % % % ; 3 C D.7.",
"$ V : @ @ # # # $ $ % 1 1 % g % ; ; % $ # # # $ V - % $ # # q  .5 1 k y @ # # # # # # # % % c F.C.e ",
"% t @ @ @ @ # # # $ % 1 1 1 d $ % % $ # # # @ @ q $ $ # u u u 1 1 1 1 y t < @ # - < q F E 4 d p.<.4 ",
"t = X @ @ @ # # # $ % 1 1 1 q # $ $ # # # @ @ + u # # < u ; 1 1 1 1 - % $ M a s u q - # # # $ q L + ",
"N . X . o @ # # # $ % ; 1 1 3 < $ $ # # @ o . : u # @ n - ; % % % $ $ $ $ g % 1 1 - % $ $ # # # a p ",
"8 . . . . @ @ # # $ % ; 1 3 w g < < # @ @ o . : q @ @ N $ % $ $ $ $ $ # # < $ 3 1 1 ; % $ $ # # $ 4 ",
"O . . . . @ @ # # $ % ; 3 w c ~ e 0 $ # @ . . 8 u q M 4.u # $ # # # # # # u % 3 1 1 1 ; % $ $ $ # # ",
"  . . . . @ @ # # $ % 1 5 f ) G.| c 2 # X . , u q % % $ < p < # # # @ @ M y % % ; 1 1 1 ; % % $ $ $ ",
". . . . . @ @ # # $ % 1 w v u.W.I.>.x M s u ; 1 1 1 1 - - $ n a @ @ @ o L H ( u g k 4 % % % % % $ $ ",
". . . . . @ @ # # $ % 1 w l a.T.K.k.-.1.w 1 1 1 1 1 1 1 ; % $ L o . . B V 1 1 1 1 g V g m u q < < % ",
". . . . o @ # # # $ % 1 5 r -.:.} U i i H 1 1 1 1 1 1 ; $ $ q W u t s W 1 1 1 1 1 1 1 ; % % 1 q k Z ",
"a . . o @ @ # # # $ % 1 1 5 Z j l f w 3 3 P 1 1 1 1 % 1 F ~ Q w 6 5 w P < 1 1 1 ; ; % % % % % % d # ",
"s o X @ @ # # # $ $ ; ; % P 3 w w 5 1 1 1 u ' H k d q 2 $ N g 3 5 3 3 5 Z u % % % % $ $ $ $ $ 2 2 # ",
"q $ @ @ @ # # # $ % ; $ y +.% 1 1 1 1 1 1 % g w q < $ # q g 3 3 1 1 3 3 3  .< $ $ $ $ # # # # B # # ",
"# N @ @ # # # $ $ % $ % ^ q % % % % $ $ $ $ u 1 1 1 $ m V 3 3 3 1 1 1 1 3 q S < # # # # # # # 2 : @ ",
"p L F u $ # # $ % % % F g # $ $ # # # # # u w 3 1 1 L k 1 1 1 1 1 1 1 1 w f r L $ @ @ @ # # # $ M @ ",
"# # $ d F / B % $ $ L k # # # @ # a #.#.F ^ 3 6 1 u S w 5 3 1 ; % % % 2 v :.x.x.N +.! $ @ @ @ @ ! / ",
"# # # $ $ % k 6.X.S 5.# # # t o.B : . . X s f z 3 S Z v j q < % $ $ $ 4 >.R.P.h $ O L r.M 8 8 F B # ",
"# # $ $ % ; % $ g J.4 # 2 r.... . . . . o 2 2.U f %.s.Z.,.d < # # # < w.l.*.) e $ @ o @ # p r.@ @ # ",
"# $ $ % ; 1 1 1 % 1.L y 4.F o . . . . X @ e F.V.V c d.E.P.l.g.F : $ o.p 2 e 0 < # # # # @ # / @ # # ",
"$ $ % ; 1 1 1 3 1 5 N.M.8 . . . . . X X @ 4 q.J q q A :.K e g L @./ M.q $ % $ # # # # # # < p # # # "
};
