/* XPM */
static char *cecdf41cdd924b78e7ac6ee60ca5b8d2azMHAhhxRI2ZxSYz[] = {
/* columns rows colors chars-per-pixel */
"50 50 173 2 ",
"   c #06070E",
".  c #08070E",
"X  c #07080D",
"o  c #09090C",
"O  c #040613",
"+  c #070813",
"@  c #0B0B13",
"#  c #04061B",
"$  c #060819",
"%  c #0D0F19",
"&  c #0E1016",
"*  c #0F101C",
"=  c #101217",
"-  c #11121C",
";  c #17191E",
":  c #0C0B21",
">  c #141524",
",  c #151826",
"<  c #191B26",
"1  c #171A29",
"2  c #191C2D",
"3  c #0F1431",
"4  c #101534",
"5  c #1A1D31",
"6  c #11173B",
"7  c #11183D",
"8  c #1E1F3C",
"9  c #221E24",
"0  c #231F2A",
"q  c #221D31",
"w  c #1F202B",
"e  c #1E2133",
"r  c #1D2239",
"t  c #242027",
"y  c #24212B",
"u  c #2A262C",
"i  c #2D282F",
"p  c #232335",
"a  c #282735",
"s  c #272837",
"d  c #2F2B31",
"f  c #22243A",
"g  c #29273B",
"h  c #27283B",
"j  c #29293C",
"k  c #312D33",
"l  c #302E3B",
"z  c #343036",
"x  c #181D42",
"c  c #171E4D",
"v  c #181F4D",
"b  c #232641",
"n  c #282744",
"m  c #262844",
"M  c #2A2C44",
"N  c #24274E",
"B  c #272A4C",
"V  c #292C4B",
"C  c #302F44",
"Z  c #2E3142",
"A  c #2D314E",
"S  c #323247",
"D  c #33344B",
"F  c #262651",
"G  c #262D54",
"H  c #292D53",
"J  c #262E5A",
"K  c #2B2F5C",
"L  c #2D3253",
"P  c #2D335A",
"I  c #313454",
"U  c #3A3B51",
"Y  c #30365B",
"T  c #35395A",
"R  c #1F2B6D",
"E  c #262F63",
"W  c #2C3264",
"Q  c #2C346A",
"!  c #313661",
"~  c #323963",
"^  c #323861",
"/  c #353862",
"(  c #333A62",
")  c #313A6B",
"_  c #393D69",
"`  c #2D3472",
"'  c #27347B",
"]  c #2E377B",
"[  c #2E347C",
"{  c #2F3A7C",
"}  c #333A74",
"|  c #30397B",
" . c #37407A",
".. c #2D3A81",
"X. c #303B80",
"o. c #313C84",
"O. c #323C84",
"+. c #323E89",
"@. c #323E8B",
"#. c #333F8E",
"$. c #323E8B",
"%. c #283891",
"&. c #2F3F9A",
"*. c #303D92",
"=. c #333E99",
"-. c #3D4784",
";. c #344091",
":. c #34439A",
">. c #35439C",
",. c #384598",
"<. c #3D4A9B",
"1. c #3E4A9D",
"2. c #2E41A4",
"3. c #3646A3",
"4. c #3143A7",
"5. c #3646A4",
"6. c #3748A7",
"7. c #3C4BA0",
"8. c #3F4DA4",
"9. c #3748AA",
"0. c #3748AA",
"q. c #3848A9",
"w. c #3848AA",
"e. c #3948AA",
"r. c #3A4BAE",
"t. c #3245B0",
"y. c #3448B2",
"u. c #3C4EB2",
"i. c #394CB5",
"p. c #394BB4",
"a. c #3D4FBB",
"s. c #3A4EBC",
"d. c #414D94",
"f. c #414D9C",
"g. c #4652A0",
"h. c #4151AD",
"j. c #4152AD",
"k. c #4354B4",
"l. c #3A4FC3",
"z. c #3A4ECB",
"x. c #3B51C5",
"c. c #3D53CB",
"v. c #3F56D5",
"b. c #3F55D7",
"n. c #3E55D4",
"m. c #3F57DB",
"M. c #3F57D9",
"N. c #3F58DE",
"B. c #4055CC",
"V. c #445ACD",
"C. c #495DCB",
"Z. c #465BD7",
"A. c #495FD6",
"S. c #4056D8",
"D. c #405ADF",
"F. c #4159DB",
"G. c #485FDF",
"H. c #4C62D6",
"J. c #4B61DE",
"K. c #4059E0",
"L. c #4059E1",
"P. c #435EEE",
"I. c #425EF0",
"U. c #435FF5",
"Y. c #435FF5",
"T. c #4D66EB",
"R. c #4B65F2",
"E. c #D6D6DD",
"W. c #D9D8DE",
"Q. c #D7D8E0",
"!. c #D8D9E3",
"~. c #DADBE9",
"^. c #DCDEF0",
/* pixels */
"h h h h h h h h h M m o O o f ~ ~ ~ ~ ~ ~ ~ ~ u.D.( ~ ~ ~ ~ ~ ~ ~ L - O O 2 M h h h h K Q h M D S n ",
"9 9 9 9 9 9 9 9 9 9 M % O 2 Y y 9 9 9 9 9 9 9 <.v.y 9 9 9 9 9 9 t j L @ O f 9 9 9 9 9 m P y k d y q ",
"9 9 9 9 9 9 9 9 9 9 M & + B y 9 9 9 9 9 9 9 d g.Z.y 9 9 9 9 9 9 9 9 V - O p 9 9 9 9 9 m ^ k d y 9 q ",
"9 9 9 9 9 9 9 9 9 9 M & + m 9 9 9 9 9 9 9 d d 7.S.y 9 9 9 9 9 9 9 9 V - O p 9 9 9 9 9 V _ k y 9 9 q ",
"9 9 9 9 9 9 9 9 9 9 M % + m 9 9 9 9 9 9 d d W K.I.:.9 9 9 9 9 9 9 9 M - O p 9 9 9 9 9 D ( y 9 9 9 q ",
"q.6.9.9.9.9.9.9.9.9.i.4.2.i.q.q.q.q.q.h.h.h.v.U.U.P.y 9 9 9 9 9 9 9 M - O p 9 9 9 9 9 m a.q.q.q.q.=.",
"B B B B B B B B B B W x 7 Q B B B B I T I B 5.U.U.m.9 9 9 9 9 9 9 9 M - O p 9 9 9 9 9 m ] B B B B F ",
"9 9 9 9 9 9 9 9 9 9 M & O M 9 9 9 i k u 9 9 p #.3.B 9 9 9 9 9 9 9 9 M - O p 9 9 9 9 9 m P 9 9 9 9 q ",
"9 9 9 9 9 9 9 9 9 9 M & O M 9 0 u k u 9 9 9 9 9 9 9 9 9 9 9 9 9 9 9 M - O p 9 9 9 9 9 m P 9 9 9 9 q ",
"9 9 9 9 9 9 9 9 9 9 M & O B 0 0 k y 9 9 9 9 9 9 9 9 9 9 9 9 9 9 9 9 V - O p 9 9 9 9 9 m P 9 9 9 9 q ",
"9 9 9 9 9 9 9 9 9 9 M & O 5 L y 0 9 9 9 9 9 9 9 9 9 9 9 9 9 9 9 9 j L @ O f 9 9 9 9 9 m P 9 9 9 9 q ",
"9 9 9 9 9 9 9 9 9 9 V @ O o m ~ Y Y Y Y Y Y P P Y Y Y Y Y Y Y Y Y P >   O f 9 9 9 9 9 m P 9 9 9 9 q ",
"f f f f f f f f f f , o O O   @ % % % % % % % % % % % % % % % % %   @ $ O % f p p p p G Q p p f f b ",
".                     O O O O O O O O O O O O O O O O O O O O O O + , > O O O O O O   3 c         % ",
"p p p p p p p p p p f f - o O O   - e p p p p p p p p p p p p p s Z j f , o O O   , f G Q p p p p b ",
"B X.@.Q p 9 9 9 9 9 9 y L @   O @ L p 9 9 9 9 9 9 H o.@.W y 9 y d y t y V 2   O , M 9 m K 9 9 9 9 q ",
"F.9.:.c.s.p 9 9 9 9 9 9 M ,     2 M 9 9 9 9 9 9 @.N.5.:.n.p.a d k 9 9 9 y V X O f y 9 m K 9 9 9 0 [ ",
"B 9 9 y >.p.0 u 9 9 9 9 M ,     5 j 9 9 9 9 9 W m.m 9 9 y r.f.k y 9 9 9 y V   O f y 9 m K 9 9 9 | z.",
"9 9 9 9 y D.D z u 9 9 9 M ,     5 j 9 9 9 9 9 i.` 9 9 9 y D J.p 9 9 9 9 y V   O f y 9 m K 9 9 9 c.` ",
"9 9 9 9 9 V.( i 9 9 9 9 M ,     5 j 9 9 9 9 0 c.B 9 9 y k l F.g 9 9 9 9 y V   O f y 9 n o.W W W K.N ",
"9 9 9 9 l J.n 9 9 9 9 9 M ,     5 j 9 9 9 9 9 p.` 9 9 k u M F.y 9 9 9 9 y V   O f y 9 9 y 0 0 y c.` ",
"H 0 9 C h.r.9 9 9 9 9 9 M ,     5 j 9 9 9 9 9 W m.H 9 0 g i.#.9 9 9 9 9 y V   O f y 9 9 9 9 9 9 ` z.",
"v.w.8.C.k.s 9 9 9 9 9 9 V >     2 M 9 9 9 9 9 9 o.v.9.3.c.w.p 9 9 9 9 9 y V   O f y 9 9 9 9 9 9 0 ` ",
"M  .-.^ y 9 9 9 9 9 9 y L @   O @ P y 9 9 9 9 9 9 B #.c.P y 9 9 9 9 9 9 A 1   O , V 9 9 9 9 t 9 9 q ",
"M D M g f f f f f f g f % o O O   % e f p p p p p p J s.f p p p p p p r >   O O O > f f f M S h f b ",
"> @ O O O O O O O O O O O O O O O O O O O O O O O O 6 t.$ O O O O O O O O O # O O O O O - > - O O : ",
"M m b 5 @ O O o 1 f f f f f f f f f f f f f f f f f W y.@ O O O % - - - - - @ O O O o h A M m m m m ",
"9 9 9 f f O   2 P y 9 9 9 9 9 9 9 9 9 9 9 9 9 9 9 9 B c.r o O 2 f s s s s s f > O   M U u 9 9 9 9 q ",
"9 9 9 9 M O   b M 9 9 9 9 9 9 9 9 9 t 9 9 9 9 9 9 9 B c.L o + h 9 9 9 9 9 9 9 p O = T i 9 9 9 9 9 q ",
"9 9 9 9 j O   b M 9 9 9 9 9 9 9 y H S u 9 9 9 9 9 9 B B.L X @ s 9 9 9 9 9 9 9 p - ; I 9 9 9 9 9 9 q ",
"9 9 9 9 j O   b M 9 9 9 9 9 9 9 ,.R.J.W K K K K K K | B.L X @ s 9 9 9 9 9 9 9 j > = V 9 9 9 9 9 9 q ",
"9 9 9 9 j O   b M 9 9 9 9 9 9 u k.R.P.l.l.l.l.N.v.l.l.r.L X @ s 9 9 9 9 9 9 i j *   V 9 9 9 9 9 9 q ",
"9 9 9 9 j O   b M 9 9 9 9 9 y d S #.W 9 9 9 9 :.| 9 9 f H o @ s 9 9 9 9 9 9 t s O   V 9 9 9 9 9 9 q ",
"9 9 9 9 M O   b M 9 9 9 9 y k k y 9 9 9 9 9 9 :.| 9 9 j V o o h 9 9 9 9 9 9 9 p O   V 9 9 9 9 9 9 q ",
"9 9 y g f O   1 P y 9 9 u d d y 9 9 9 9 9 9 9 :.| 9 y L 5     f p 9 9 9 9 0 f 2 O   r M y 9 9 9 9 q ",
"f f f 2 @ O O   , f e p Z j p e e e e e e e e >...e f 1 o O O @ , 2 2 2 2 < - + O O @ 2 f f f f f b ",
"O O O O O O O O O O $ , * $ O O   O O O O O O %.R O O O O O O O O O O O O O O O O O O O O O O O O : ",
"o O O   - , , , , > @ % $ O   & , , , , , , , &.' , , , , , , , - o + O O o o % % % % % % % % % % > ",
"B @ + f M s s s s f A > O o e ( Y L L L L L ^ a.r.) L L L L L L ~ V o O o r A j h h h h h h h h h B ",
"A * * M 9 9 9 9 9 9 9 n   o ( f 9 9 9 9 9 W x.c.x.v.X.y 9 9 9 9 y Y 1 O > L 9 9 9 9 s ` | H 0 9 9 q ",
"A > - h 9 9 9 9 9 9 9 m . @ ~ 9 9 9 9 9 H m.W 9 0 f x.;.0 i i 0 9 V 2 O 2 j 9 9 9 H c.5.>.i.>.y 9 q ",
"A > - h 9 9 9 9 9 9 9 m . @ ~ 9 9 9 9 9 p.@.p >.s.B H n.C k u 9 9 V 5 O 2 j 9 9 y p.W m K y 9.W 9 q ",
"A > - h 9 9 9 9 9 9 9 m . @ ~ 9 9 9 9 y v.B W P.U.>.s V.T u 9 9 9 V 2 O 2 j 9 9 n i.y m K 9 ` ;.9 p ",
"A > - h 9 9 9 9 9 9 9 m . @ ~ 9 9 9 9 9 c.W f c.K.W S H.M 9 9 9 9 V 2 O 2 j 9 9 f s.p m K 9 { @.9 q ",
"A > > h 9 9 9 9 9 9 9 m . @ ~ 9 9 9 9 9 | s.p y p i d.k.y 9 9 9 9 V 2 O 2 j 9 9 9 >.@.m K m x.B 9 0 ",
"A , w M 9 9 9 9 9 9 9 m   o ~ y 9 9 9 9 y p.x.| } k.V.B 9 9 9 9 9 L 2 O 2 M 9 9 9 p 3.c.x.x.W 9 9 0 ",
"I < < M y 9 9 9 9 9 s e   o L L f p p p p g O.A.T.1.V p p p p p M ~ - O % L s 9 9 9 9 K | p 9 9 9 q ",
"y % + - b V V V V B e @ O   & m P P P P P P ( k.G.P P P P P P P H > o O   & 5 2 2 2 2 N E 2 2 2 2 8 ",
"> # # $ + + + + + + + $ # # $ + @ @ @ @ @ @ - *.z.% @ + + + + + + + $ # # $ $ @ @ + + 4 v @ @ @ @ : ",
"W.E.E.E.E.E.E.E.E.E.E.E.E.E.E.E.E.E.E.E.E.E.E.~.^.E.E.E.E.E.E.E.E.E.E.E.E.E.E.E.E.E.E.Q.!.E.E.E.E.E."
};
