/* XPM */
static char *New_Project1708774647[] = {
/* columns rows colors chars-per-pixel */
"50 50 22 1 ",
"  c #111111",
". c gray9",
"X c gray7",
"o c gray8",
"O c #151515",
"+ c #191919",
"@ c #181818",
"# c #131313",
"$ c gray6",
"% c #101010",
"& c #161616",
"* c #0E0E0E",
"= c gray5",
"- c gray10",
"; c #1B1B1B",
": c gray12",
"> c #1E1E1E",
", c gray11",
"< c #1D1D1D",
"1 c #0C0C0C",
"2 c gray13",
"3 c #202020",
/* pixels */
" .XoO+ OX @####o$X oo $%&&%$ #o X$##X##@ XoX@&oX. ",
"XOX% oX$X X&o+o$X# $$$##X X#%$$%o $#+X.X X$ o %XOX",
" &XX o% O%oO.&o o# X%*O#%*#O* #%oo o&OOo%oX%o XX& ",
"% X $$*oX%##..+*= **$*  $*  *$**%=*@@O##%##$*$$X  ",
"&%o@O  %#& %X OX*&+O#@O&-+&o@#O+.$X& #$ Oo$X%O+o$O",
"&+#O# % X@#$ Xo#O&O#O.O++&;O.o#o&OooX $#.#%%X#o#@&",
";&O;@Xooo#$$X %o O#Xo;:@# @>,OX#& o  X%$#oOoX@,&&-",
"@@;&@Oo.&&%XX XX.,ooO,+&o#&--&Oo-@XX  #$&.@oO&.;@+",
"@:+-X##.&O.O+&@#&&X#Oo-@--@+OO# .&X@O&O@OO@#XX@+>-",
"-&@Ooo#&.O-o$ .&XOoOooO-+@;&ooOoOX&. $#;o@.#ooo..+",
",O.&,@##X#+X%#.#O Xo.-&o.&o&-.oX%&#&#%X+## o.,.&O,",
"-+@&@OO #.&&&o&&ooX.O+.O@.O.@&.X#O&&o&.&@# O&@&@+-",
"# +@@ Xo%#&.%#.& o#% .@Xo##@.X$#oXO@# ..o%oX ..-X#",
"+o.&O+&Oo&&  O#-o@#OoO..o#..OoO#.O@oo X&.#O.@O&@o+",
"###%X  %O#&&#-.o#&##o&-..O@-&o##&#o.;X&&oo%  #%X##",
"O*$X@X#X Oo#$oO&%o X#.& %$%&@## #%.OO=oX. X#X@#$*o",
" Xo* X*X*$ ++:X*$  *&##$X $##o*  %=X:&- $$X=  *oXX",
"&%XX#%$#$%$@.&&X$$ % #o  % o# % $$ .OO@$%$#*%##X%&",
" # %$$%%% &OooXXX%$oX X%$* XX o%% XXo#O& %% $$%X#X",
"&Xo-OO.o %#o%X#%%#O@o&@oo#o@&o@oO%$#X%oo% o.OO;OX&",
"o@&;.oX#-+& =X& #.##X&&O.O&&&X#o.#%&X*%.@+o##&,&@o",
"##@:-Oo$# %%%+oO  XO@+<OoXo<--oX  oo+% % #%#o-:@o#",
"&#&OOo.XoXXo ## % X%&@OOOOo&@O X $XX#%O Xo .OOO&#&",
"&+.O@OOoXo&&X..#Xoo#O@..OO.&@O#ooX#.@#&&oXoOO@O&@&",
"-#O#OoX1.O.o$%OO.o#OoOo+X +o&oOXO.OO%%#.o@1X#&#O#+",
"@o&#O#X=@O&o$%oo&OXOOoo+  +OOO& &&oO%%o.o+= #O#&o+",
"&@&o@oOX#o&&X..o#o##o@..OO.&.O##o#o..X&&OX#Oo@o&@.",
"&o&oOo@#oX o #o % # O@OOOoO&@O XX$ ##%o XoX.&oo&o&",
"##@2-oo$# %%%@#o  XO@+<oo#o<-+#X  o#@$ %%#%oo-3@##",
"o.O,@#X#++O *X& X&###&&o.&OO.##o&X%&X*%&@+oX#.,&@o",
"&#o;&O.o %#o%X#%%oO.o&@Oo#O@&o@oO%$#X%oo$ o.OO;OX&",
"X# %$$ %% OO#o XX $oX #%$*%XXXo%  XXoXOO  $ $$%X##",
"O%# o%$#$ %.@o.X$$   Xo  $X#X   $$X@o&.% $#$ #X#%O",
"  o*XX= *$ ,+3X=$% *&##$X $#oO$ $$= 2&< $$%=XX$o  ",
"o$$%.XXX #X#%OOO O%XXO#%%$%#OXX o%OoO*o O  X @ $$o",
"##X X   Oo&&X-.OX&o#o.,..O.,.o##&XO&- &&Oo   X X##",
"@O.&O+.Oo&.XX&o+o+#OoO..##.@Oo&#.O@O& #&.#O.+O&.O+",
"o .@+ X# XOO$#&&X##$ ..#o##..X$#oX&&o$O&# XX +@. #",
"-++.@Oo #.&.&o&&ooX.O+@O&&O.+&&XoO&&o&.&@# o&..+++",
",&.&,@o###-# #&#& XO.;&o.&o&;.OX%&#&o #+## o.,.&&,",
";&@ooO#o.&+o$X.. oooo#O-;-;&#oooo &@X$#-o@OXOo#..-",
"@:+-X##@&o@O@&@#&&##Oo--+-++oOoX.&#@OOo@o&@o#X@+>+",
"@-;.@&#.&.%XX ##@;oO&;.OOoO@+&O#-@X#  #%...#&..;++",
";O&;. OOo#$%X %o%&oX#;:+# @:,oX#. #% X%$#o&o .,&&-",
".+#o# $ X.#$ Xo#O&O#&.&@@O-&.&#o&Oo#X $#.# $Xoo#+&",
"O%o+O%X X& %X%o#$&+&#@O.-+.O+#&+.$#o%#$ &#$#%o+o%O",
"% X%$$*#X XX&.-*=%**%*  %$  *%$*%==-@OXX X#**%$X  ",
" .XX #%XO$oO.&o o# #%*&#$*#O$%# #oXo&&OO$o#%# XX& ",
"XoX  oX$X X&o-O$Xo $$$##XXX#%$%%O $o-#.X X% O  XoX",
"%@XXO+ O# .Xo##X$  o# % && $ Xo  $ #X#X. #oX@&X . "
};
